<svg width="160" height="160" viewBox="0 0 160 160" fill="none" xmlns="http://www.w3.org/2000/svg">
  <defs>
    <linearGradient id="hmsGradient" x1="18" y1="18" x2="142" y2="142" gradientUnits="userSpaceOnUse">
      <stop offset="0" stop-color="#4C6EF5" />
      <stop offset="1" stop-color="#60A5FA" />
    </linearGradient>
    <linearGradient id="hmsAccent" x1="38" y1="142" x2="122" y2="18" gradientUnits="userSpaceOnUse">
      <stop offset="0" stop-color="#22D3EE" />
      <stop offset="1" stop-color="#8B5CF6" />
    </linearGradient>
  </defs>
  <rect x="8" y="8" width="144" height="144" rx="36" fill="url(#hmsGradient)" />
  <path d="M46 53C46 48.5817 49.5817 45 54 45H70C74.4183 45 78 48.5817 78 53V69H94V53C94 48.5817 97.5817 45 102 45H118C122.418 45 126 48.5817 126 53V107C126 111.418 122.418 115 118 115H102C97.5817 115 94 111.418 94 107V91H78V107C78 111.418 74.4183 115 70 115H54C49.5817 115 46 111.418 46 107V53Z" fill="white" fill-opacity="0.96" />
  <path d="M52 125H108" stroke="url(#hmsAccent)" stroke-width="10" stroke-linecap="round" />
</svg>
